<svg width="17" height="16" viewBox="0 0 17 16" fill="none" xmlns="http://www.w3.org/2000/svg">
<g id="Icon">
<path id="Vector (Stroke)" fill-rule="evenodd" clip-rule="evenodd" d="M2.75 8C2.75 7.72386 2.97386 7.5 3.25 7.5H14.25C14.5261 7.5 14.75 7.72386 14.75 8C14.75 8.27614 14.5261 8.5 14.25 8.5H3.25C2.97386 8.5 2.75 8.27614 2.75 8Z" fill="#3E3A40"/>
<path id="Vector (Stroke)_2" fill-rule="evenodd" clip-rule="evenodd" d="M8.10355 3.14645C8.29882 3.34171 8.29882 3.65829 8.10355 3.85355L3.95711 8L8.10355 12.1464C8.29882 12.3417 8.29882 12.6583 8.10355 12.8536C7.90829 13.0488 7.59171 13.0488 7.39645 12.8536L2.89645 8.35355C2.70118 8.15829 2.70118 7.84171 2.89645 7.64645L7.39645 3.14645C7.59171 2.95118 7.90829 2.95118 8.10355 3.14645Z" fill="#3E3A40"/>
</g>
</svg>
