<svg width="17" height="16" viewBox="0 0 17 16" fill="none" xmlns="http://www.w3.org/2000/svg">
<g id="Icon">
<path id="Vector (Stroke)" fill-rule="evenodd" clip-rule="evenodd" d="M8.5 2.5C8.77614 2.5 9 2.72386 9 3V7.75C9 8.02614 8.77614 8.25 8.5 8.25C8.22386 8.25 8 8.02614 8 7.75V3C8 2.72386 8.22386 2.5 8.5 2.5Z" fill="#EDECEE"/>
<path id="Vector (Stroke)_2" fill-rule="evenodd" clip-rule="evenodd" d="M5.91907 3.11478C6.06969 3.34623 6.00417 3.65596 5.77273 3.80658C4.86933 4.3945 4.18011 5.25861 3.80778 6.27012C3.43546 7.28163 3.39996 8.38637 3.70659 9.41969C4.01322 10.453 4.64556 11.3596 5.50935 12.0043C6.37315 12.649 7.42214 12.9973 8.5 12.9973C9.57786 12.9973 10.6269 12.649 11.4906 12.0043C12.3544 11.3596 12.9868 10.453 13.2934 9.41969C13.6 8.38637 13.5645 7.28163 13.1922 6.27012C12.8199 5.25861 12.1307 4.3945 11.2273 3.80658C10.9958 3.65596 10.9303 3.34623 11.0809 3.11478C11.2316 2.88334 11.5413 2.81782 11.7727 2.96844C12.8568 3.67394 13.6839 4.71088 14.1307 5.92469C14.5775 7.13849 14.62 8.46419 14.2521 9.70417C13.8841 10.9442 13.1253 12.032 12.0888 12.8057C11.0522 13.5793 9.79343 13.9973 8.5 13.9973C7.20657 13.9973 5.94777 13.5793 4.91122 12.8057C3.87467 12.032 3.11587 10.9442 2.74791 9.70417C2.37996 8.46419 2.42255 7.13849 2.86934 5.92469C3.31613 4.71088 4.1432 3.67394 5.22727 2.96844C5.45872 2.81782 5.76845 2.88334 5.91907 3.11478Z" fill="#EDECEE"/>
</g>
</svg>
