<svg width="17" height="16" viewBox="0 0 17 16" fill="none" xmlns="http://www.w3.org/2000/svg">
<g id="Icon">
<path id="Vector (Stroke)" fill-rule="evenodd" clip-rule="evenodd" d="M7.82262 1.12801C7.98368 1.09647 8.15003 1.10506 8.30699 1.15302C8.46385 1.20095 8.60652 1.28674 8.72241 1.4028C8.72248 1.40287 8.72234 1.40273 8.72241 1.4028L15.2456 7.92596C15.3391 8.01803 15.4136 8.12774 15.4645 8.24875C15.5159 8.3708 15.5423 8.50189 15.5423 8.63432C15.5423 8.76674 15.5159 8.89783 15.4645 9.01988C15.4136 9.14089 15.3391 9.2506 15.2456 9.34268L9.59268 14.9956C9.5006 15.0891 9.39089 15.1636 9.26988 15.2145C9.14783 15.2659 9.01674 15.2923 8.88432 15.2923C8.75189 15.2923 8.6208 15.2659 8.49875 15.2145C8.37774 15.1636 8.26803 15.0891 8.17596 14.9956L1.65301 8.47262C1.65294 8.47255 1.65308 8.47268 1.65301 8.47262C1.53694 8.35672 1.45095 8.21385 1.40302 8.05699C1.35506 7.90003 1.34647 7.73368 1.37801 7.57262L1.37836 7.57087L2.38461 2.52712C2.42413 2.329 2.579 2.17413 2.77712 2.13461L7.82087 1.12836L7.91869 1.61869L7.82262 1.12801ZM8.01477 2.10938L3.3 3.05L2.35938 7.76477L2.35975 7.76514L8.88432 14.2897L14.5397 8.63432L8.01477 2.10938Z" fill="#EDECEE"/>
<path id="Vector" d="M5.5 6C5.91421 6 6.25 5.66421 6.25 5.25C6.25 4.83579 5.91421 4.5 5.5 4.5C5.08579 4.5 4.75 4.83579 4.75 5.25C4.75 5.66421 5.08579 6 5.5 6Z" fill="#EDECEE"/>
</g>
</svg>
